<?xml version="1.0" encoding="UTF-8"?><svg id="Layer_2" xmlns="http://www.w3.org/2000/svg" viewBox="0 0 561.32 366.47"><g id="Layer_1-2"><g id="logo"><polygon points="522 16.43 423.11 16.43 320.93 132.65 341.64 16.23 246.1 16.23 228.75 113.81 138.48 113.81 155.83 16.23 60.3 16.23 8.91 305.35 104.44 305.35 124.35 193.32 214.62 193.32 194.71 305.35 290.24 305.35 313.46 174.79 370.13 305.35 469.8 305.35 398.4 153.03 522 16.43" style="fill:#0f6b9e; fill-rule:evenodd;"/><polygon points="474.33 324.33 7.38 324.33 8.81 318.42 475.61 318.42 474.33 324.33" style="fill:#f69320; fill-rule:evenodd;"/><polygon points="7.78 365.73 0 365.73 5.9 337.97 13.67 337.97 7.78 365.73" style="fill:#414042; fill-rule:evenodd;"/><polygon points="72.68 337.97 78.08 337.97 72.19 365.73 66.4 365.73 59.28 345.92 59.21 345.92 54.99 365.73 49.58 365.73 55.49 337.97 61.59 337.97 68.5 357.29 68.57 357.29 72.68 337.97" style="fill:#414042; fill-rule:evenodd;"/><path d="M138.08,347.06c-.11-1.66-.34-4.8-5.14-4.8-2.78,0-7.27,1.86-8.93,9.69-1.06,5-.05,9.47,4.87,9.47,3.2,0,5.83-1.81,7.25-5.24h5.8c-2.44,6.04-7.27,10.24-14.23,10.24-7.38,0-11.62-4.98-9.6-14.58,2.06-9.69,8.73-14.63,15.88-14.63,8.29,0,10.45,5.71,9.89,9.81l-5.78.02Z" style="fill:#414042; fill-rule:evenodd;"/><path d="M195.95,361.54c3.13,0,7.95-1.92,9.6-9.69,1.65-7.77-2.34-9.72-5.47-9.72s-7.96,1.95-9.6,9.72c-1.65,7.77,2.33,9.69,5.47,9.69ZM201.11,337.26c3.67,0,13,1.58,10.22,14.6-2.78,13.03-12.75,14.6-16.43,14.6s-13-1.58-10.22-14.6,12.76-14.6,16.43-14.6Z" style="fill:#414042; fill-rule:evenodd;"/><polygon points="261.92 365.73 256.11 365.73 260.97 342.89 252.59 342.89 253.63 337.97 276.2 337.97 275.17 342.89 266.77 342.89 261.92 365.73" style="fill:#414042; fill-rule:evenodd;"/><polygon points="337.66 342.89 322.91 342.89 321.68 348.72 335.21 348.72 334.16 353.61 320.64 353.61 319.12 360.81 334.49 360.81 333.46 365.73 312.39 365.73 318.28 337.97 338.7 337.97 337.66 342.89" style="fill:#414042; fill-rule:evenodd;"/><path d="M398.49,347.06c-.1-1.66-.31-4.8-5.11-4.8-2.78,0-7.27,1.86-8.94,9.69-1.06,5-.04,9.47,4.86,9.47,3.21,0,5.83-1.81,7.26-5.24h5.77c-2.44,6.04-7.29,10.24-14.24,10.24-7.38,0-11.62-4.98-9.57-14.58,2.04-9.69,8.73-14.63,15.86-14.63,8.29,0,10.47,5.71,9.89,9.81l-5.79.02Z" style="fill:#414042; fill-rule:evenodd;"/><polygon points="451.61 353.27 448.97 365.73 443.17 365.73 449.07 337.97 454.86 337.97 452.63 348.48 463.44 348.48 465.7 337.97 471.49 337.97 465.59 365.73 459.79 365.73 462.43 353.27 451.61 353.27" style="fill:#414042; fill-rule:evenodd;"/><path d="M20.37,321.37c0,3.9-3.16,7.06-7.06,7.07-3.9,0-7.06-3.16-7.07-7.06,0-3.9,3.16-7.06,7.06-7.07h0c3.89-.01,7.05,3.13,7.07,7.01,0,.01,0,.03,0,.04Z" style="fill:#0f6b9e; fill-rule:evenodd;"/><path d="M544.56,15.44c.6,0,1.21-.05,1.8-.14.53-.08,1.04-.27,1.49-.55.43-.28.78-.66,1.02-1.11.28-.56.41-1.18.39-1.81.03-.91-.28-1.8-.87-2.5-.58-.65-1.5-.98-2.76-.98h-6.72v7.1h5.66ZM536.22,6.07h9.57c1.92,0,3.43.48,4.53,1.44,1.11.98,1.72,2.41,1.65,3.89.02,1.14-.27,2.26-.84,3.25-.61.97-1.58,1.65-2.69,1.91v.06c.52.09,1.01.28,1.44.57.35.26.64.59.87.96.23.38.39.8.49,1.24.09.44.17.93.22,1.42s.08,1.01.1,1.52.07,1.03.14,1.51c.07.47.17.94.32,1.4.13.43.35.83.64,1.18h-3.02c-.18-.22-.31-.48-.37-.76-.06-.34-.11-.68-.13-1.03-.03-.4-.05-.87-.07-1.39s-.07-1.13-.17-1.84c-.08-.49-.17-.96-.28-1.41-.11-.42-.29-.82-.55-1.17-.26-.34-.59-.62-.98-.8-.5-.22-1.04-.32-1.58-.3h-6.61v8.69h-2.71l.02-20.34Z" style="fill:#0956a4; fill-rule:evenodd;"/><path d="M544.19,2.15c-8.27,0-14.97,6.7-14.97,14.97s6.7,14.97,14.97,14.97c8.27,0,14.97-6.7,14.97-14.97,0-8.27-6.71-14.96-14.97-14.97ZM544.19,34.25c-9.46,0-17.12-7.67-17.12-17.12s7.67-17.12,17.12-17.12c9.46,0,17.12,7.67,17.12,17.12h0c-.01,9.45-7.67,17.11-17.12,17.12Z" style="fill:#0956a4; fill-rule:evenodd;"/></g></g></svg>